PathFileType	4	(X/Y/Z)	C:/Users/beibeiliu/ov580/test_trc\sequence.39_training_dense_right.trc
DataRate	CameraRate	NumFrames	NumMarkers	Units	OrigDataRate	OrigDataStartFrame	OrigNumFrames
120	120	17	19	mm	120	31	60
Frame#	Time	ThumbCMC			ThumbMCP			ThumbIP			ThumbTip			IndexMCP			IndexPIP			IndexTip			MiddleMCP			MiddlePIP			MiddleTip			RingMCP			RingPIP			RingTip			PinkyMCP			PinkyPIP			PinkyTip			BackHand1			BackHand2			BackHand3	
		X0	Y0	Z0	X1	Y1	Z1	X2	Y2	Z2	X3	Y3	Z3	X4	Y4	Z4	X5	Y5	Z5	X6	Y6	Z6	X7	Y7	Z7	X8	Y8	Z8	X9	Y9	Z9	X10	Y10	Z10	X11	Y11	Z11	X12	Y12	Z12	X13	Y13	Z13	X14	Y14	Z14	X15	Y15	Z15	X16	Y16	Z16	X17	Y17	Z17	X18	Y18	Z18	
30	0.25	129.248	30.0335	164.948	117.912	24.1655	135.492	112.871	26.4705	110.866	112.327	29.4475	89.3427	159.01	65.8847	112.279	158.658	63.4036	85.4993	156.172	61.4669	62.3007	189.356	56.6987	110.877	188.536	55.0013	78.7592	174.435	37.7117	54.3852	205.634	42.6007	116.138	204.965	44.5997	85.9226	187.329	25.8364	62.0775	210.72	21.0903	123.477	214.573	21.9129	95.1096	199.626	12.4397	73.0075	193.47	25.3396	164.549	185.374	14.8576	189.365	164.267	41.3715	179.293	
31	0.258333	129.689	30.1619	168.92	117.531	26.0036	135.935	111.271	29.5972	113.308	108.045	33.3775	89.2722	166.421	65.5028	117.975	163.127	70.3767	88.8652	163.612	67.5292	62.9413	187.724	55.0357	109.421	179.031	45.8938	80.1288	149.497	21.2061	77.8343	198.518	38.1855	110.274	187.658	28.7545	83.1363	160.693	13.3701	85.0963	205.974	15.073	118.895	195.724	12.342	92.3942	165.23	4.26906	93.1892	191.847	24.8142	163.835	184.221	14.4913	192.933	167.889	38.6882	179.703	
32	0.266667	126.411	31.3898	173.665	114.638	28.0017	138.629	106.336	34.1632	114.523	105.617	36.9777	91.7412	166.073	67.6897	121.917	161.75	75.2056	90.7902	161.377	72.025	68.2623	178.435	50.8815	110.539	159.127	38.2364	85.3346	140.194	13.4247	105.481	187.28	31.5717	107.435	165.615	18.5661	89.8471	146.28	4.05471	115.547	194.438	13.3352	115.263	172.865	0.6223	97.5107	151.289	1.59529	123.933	194.126	22.9865	164.77	186.538	9.69328	189.34	169.078	39.9997	178.603	
33	0.275	128.244	31.1827	173.273	112.524	26.9633	144.983	103.761	32.7783	119.829	100.118	39.8	94.9293	162.912	69.8696	117.494	160.873	71.8078	92.3422	159.357	65.7345	66.3183	172.414	42.8175	108.608	147.052	28.3687	92.221	133.41	14.2202	122.542	174.98	23.5513	103.285	150.066	7.99664	101.353	143.649	2.02138	132.729	182.753	8.6446	110.634	156.356	-4.09787	109.411	149.363	-0.691777	144.77	193.698	23.9601	162.656	185.387	11.9574	187.127	165.112	40.1772	181.671	
34	0.283333	129.053	31.6358	171.066	110.415	28.98	142.785	104.147	31.9255	122.042	94.527	39.7086	97.536	162.791	62.3325	115.155	155.073	68.4976	86.0581	152.636	62.216	64.1952	160.693	42.0214	103.914	138.254	23.1647	97.3829	133.121	14.5011	134.971	166.166	21.1151	105.6	142.877	4.3837	108.76	142.185	7.90943	145.427	173.916	4.93022	111.58	149.018	-7.24107	119.86	150.234	1.63994	150.562	190.959	19.2706	159.091	183.236	9.02489	187.242	166.36	40.007	176.766	
35	0.291667	127.246	29.1221	173.584	108.712	27.5349	141.403	96.9652	31.8315	120.952	93.7956	35.3439	98.7845	156.798	64.2271	110.595	153.586	61.2326	87.4234	147.7	60.9582	62.6887	156.407	36.2201	100.88	131.957	16.8242	100.308	132.239	9.93442	136.732	163.553	15.0593	105.222	135.308	3.06805	114.733	144.254	5.45546	148.986	166.922	2.26923	110.026	145.892	-8.01521	121.017	152.077	0.636878	152.761	188.494	22.365	157.067	182.714	7.64025	187.342	167.477	37.2836	175.697	
36	0.3	125.776	28.3751	169.568	109.241	21.7484	143.322	97.7411	29.97	115.477	90.9763	33.1412	97.3362	154.899	58.9892	110.109	146.48	62.1059	87.0298	145.106	57.2351	63.0269	151.847	36.4508	101.951	130.709	15.2895	100.324	128.28	12.1684	139.139	160.096	14.9995	105.501	134.509	-0.40076	116.712	143.337	6.33055	147.811	169.171	-1.24222	111.238	142.447	-11.6923	126.998	148.558	-1.52404	152.41	185.159	19.7567	155.358	181.504	10.3978	182.387	163.766	35.2485	177.649	
37	0.308333	124.161	23.9984	172.209	107.2	21.1425	142.189	98.5529	29.0986	113.11	93.6501	32.7811	93.9995	149.306	58.506	111.878	143.304	58.6133	87.9006	135.914	60.4501	63.2523	153.157	35.8941	101.933	131.823	13.0118	100.481	132.121	10.1782	138.244	160.801	16.4276	104.824	134.844	-0.46228	116.471	141.028	6.39558	146.201	167.873	-0.785481	110.21	143.949	-11.2211	126.09	151.707	2.00148	153.629	186.126	21.119	157.301	183.443	9.29472	182.41	162.102	37.9976	173.363	
38	0.316667	121.267	23.3432	171.154	108.193	19.3643	139.457	101.69	26.5791	110.755	97.2471	28.5661	92.6899	144.312	59.2958	107.316	135.816	59.0536	84.8463	131.412	54.5548	60.1433	155.198	36.1373	102.223	131.638	15.9636	98.1837	129.425	12.0323	136.73	157.792	18.5889	103.466	138.887	-1.72649	111.133	141.159	6.23429	144.973	171.449	4.38578	111.238	149.511	-12.156	120.731	151.529	-0.397856	150.198	182.882	24.3635	157.133	178.824	14.5195	183.125	159.7	39.8263	174.707	
39	0.325	115.203	20.9585	167.152	109.344	15.5298	131.865	106.566	18.7586	106.543	101.53	19.6922	87.344	138.97	56.4245	109.676	131.477	54.3081	83.6334	126.463	46.5031	57.787	150.004	36.1406	98.2547	132.275	8.79473	97.1558	132.286	7.74642	134.116	159.869	13.9606	100.918	139.052	-4.22581	111.156	142.068	4.83949	144.149	170.102	6.01581	110.49	149.644	-13.5429	121.518	153.329	-0.405824	151.346	183.031	25.7116	155.026	177.886	13.1089	184.463	153.626	41.0607	172.475	
40	0.333333	112.788	20.2191	162.95	104.223	8.19641	133.298	98.7249	8.75706	106.458	97.5044	10.3025	84.6345	132.973	48.1996	102.043	126.751	38.9853	77.5493	119.006	26.5629	51.8363	148.07	24.2789	95.5416	127.021	2.01835	93.9524	125.778	2.2285	132.738	157.242	5.50718	101.953	133.579	-12.2417	111.727	137.681	-3.1939	143.804	166.512	-6.93727	108.459	144.503	-21.3945	124.395	148.657	-6.58233	152.461	176.41	23.5339	150.209	174.818	14.9091	181.105	151.171	35.3786	167.349	
41	0.341667	111.457	25.1788	165.495	92.2813	14.4247	140.629	87.3469	13.3386	111.712	79.3406	12.7212	88.8608	123.576	42.247	97.7829	110.671	31.3105	76.4083	97.938	20.5132	58.4829	130.126	15.487	91.763	109.034	-5.09078	100.391	116.735	2.46878	137.056	135.946	-5.87011	100.08	113.932	-14.7027	115.54	128.553	-0.95412	147.161	148.392	-17.9379	109.374	123.633	-20.5511	130.111	135.626	-9.04665	154.384	171.806	12.8079	145.187	169.291	7.61043	172.228	148.561	35.4252	163.092	
42	0.35	116.903	38.2293	166.803	90.7783	34.4978	148.57	76.1153	37.1302	121.776	65.0115	38.4118	100.571	117.363	41.0584	94.8291	99.2902	37.5283	81.7117	78.1386	30.6624	67.8131	113.56	14.9532	94.3683	88.3744	7.27466	106.794	102.688	13.4884	142.773	113.68	0.186779	105.34	92.5426	-2.19537	127.163	111.958	8.15189	150.645	119.466	-19.4266	113.236	100.407	-15.3131	136.691	122.342	-1.87499	159.581	160.696	2.08114	139.48	163.641	-1.24446	166.789	152.319	32.4476	154.379	
43	0.358333	127.377	49.8612	168.062	100.032	52.9231	152.344	83.6557	60.3181	131.56	71.4018	63.8972	113.565	120.855	44.6804	98.2433	94.0843	53.578	83.0118	72.5983	52.9774	75.4061	108.332	25.3486	100.637	80.2081	32.5678	115.651	97.9576	30.9193	146.859	100.607	9.39461	108.974	83.6226	18.5363	135.822	108.477	15.087	155.412	96.8179	-7.76245	118.689	87.8265	5.25868	143.786	114.162	6.151	162.139	148.405	-4.05193	137.839	156.024	-7.19708	164.417	155.745	23.0113	153.865	
44	0.366667	139.349	45.2954	162.47	115.484	59.7686	151.798	99.8316	70.6968	131.785	87.1245	79.2765	113.968	126.485	45.7733	92.6971	107.497	57.1254	83.1971	79.7446	61.5607	75.632	108.537	31.3969	99.7503	85.8887	42.5256	118.161	107.363	38.2372	147.504	95.1709	18.5699	111.17	86.8363	32.5044	137.081	111.239	21.9586	154.581	94.426	4.10254	121.833	87.3551	17.5622	147.207	114.334	14.0246	159.13	140.92	-11.1555	133.587	148.786	-14.4438	168.086	159.886	15.7884	151.495	
45	0.375	155.32	35.798	159.707	135.209	56.4295	143.29	124.891	70.9585	122.475	115.327	81.6006	104.457	144.032	28.834	92.1644	128.111	48.5258	77.9539	103.976	62.0691	67.9145	123.839	25.0083	95.9385	105.576	45.8211	109.456	121.733	35.1166	143.138	110.134	14.5059	107.718	100.429	34.8952	130.528	122.095	21.8099	151.393	96.5446	4.60754	118.189	95.6608	22.6231	137.884	119.092	9.02524	159.483	142.504	-18.8543	137.573	147.637	-26.8021	169.986	168.377	2.56392	147.682	
46	0.383333	175.428	21.6727	158.323	158.681	39.2577	138.883	152.284	54.4012	112.79	147.388	61.2856	98.4168	169.206	8.68283	90.6703	153.834	23.2334	72.9387	133.712	40.4834	58.3467	144.642	4.72722	94.2542	130.785	31.6627	104.553	142.217	22.7349	137.985	129.626	-0.412751	103.806	122.182	24.9641	122.207	139.417	11.7556	147.358	111.721	-6.63615	113.082	113.517	14.6933	135.521	134.584	2.92978	151.728	147.194	-36.6279	138.825	153.028	-39.0133	170.215	177.734	-19.9004	152.536	
